# File created by Blade
# Date/Time:  Wed Jan 21 17:57:11 2015
# Frame Rate: 120.000 fps
#------------------------------------------------------
:FULLY-SPECIFIED
:DEGREES
409
root 19.214645 30.463959 -16.242754 -107.229649 1.146657 -179.772386
Spine 60.041709 3.643787 -1.916118
Head 177.778181 4.021045 191.187715
LeftShoulder 46.738553 -54.334661 -8.399036
LeftArm 39.941296 23.125641 -6.008218
LeftForeArm 47.605912 0.000000 21.908655
LeftHand 8.408767 -0.000000 46.671993
LeftHandThumb1 -26.253704 0.000000 33.147579
RightShoulder 27.937791 5.139582 -21.172508
RightArm 27.766972 32.852390 -5.214092
RightForeArm -58.832793 -0.000000 37.621243
RightHand 4.203686 0.000000 -32.623244
RightHandThumb1 -24.326973 -0.000000 -32.862282
LeftUpLeg -72.755567 29.358294 8.310841
LeftLeg -3.508371 -0.000000 0.000000
LeftFoot -8.783343 25.048247 -20.963597
LeftToeBase 31.776060 -0.000000 -0.000000
RightUpLeg -74.468626 -29.816512 -5.458220
RightLeg -4.758283 -0.000000 0.000000
RightFoot -5.441988 -17.742870 26.333712
RightToeBase 30.387984 -0.000000 -0.000000
410
root 19.214657 30.475379 -16.310538 -106.957489 1.132561 -179.610064
Spine 59.918187 3.786101 -1.836119
Head 177.799102 4.117658 191.186429
LeftShoulder 46.436507 -54.058359 -8.025094
LeftArm 40.656146 23.434658 -5.010596
LeftForeArm 46.801701 -0.000000 20.962074
LeftHand 9.095690 0.000000 48.139679
LeftHandThumb1 -26.253704 0.000000 33.147579
RightShoulder 27.840822 5.220747 -21.163062
RightArm 27.740215 32.417039 -5.704613
RightForeArm -58.751666 -0.000000 37.055368
RightHand 4.753647 -0.000000 -33.501428
RightHandThumb1 -24.326973 -0.000000 -32.862282
LeftUpLeg -72.788654 29.523579 8.586403
LeftLeg -3.388179 -0.000000 0.000000
LeftFoot -8.968747 24.856914 -21.054435
LeftToeBase 31.619525 -0.000000 -0.000000
RightUpLeg -73.661863 -29.452416 -6.600923
RightLeg -5.450312 -0.000000 0.000000
RightFoot -5.526603 -18.614130 27.098330
RightToeBase 30.258418 -0.000000 -0.000000
411
root 19.214838 30.474879 -16.382742 -106.833101 1.144614 -179.606192
Spine 59.945843 3.851088 -1.789363
Head 177.796957 4.252143 191.236854
LeftShoulder 46.427682 -53.805975 -7.825704
LeftArm 41.063015 23.746764 -4.082690
LeftForeArm 46.340147 -0.000000 20.437505
LeftHand 9.390544 0.000000 49.370454
LeftHandThumb1 -26.253704 0.000000 33.147579
RightShoulder 27.751841 5.141002 -21.194145
RightArm 27.614932 32.230011 -6.194675
RightForeArm -58.621290 0.000000 36.529998
RightHand 5.448294 -0.000000 -34.296847
RightHandThumb1 -24.326973 -0.000000 -32.862282
LeftUpLeg -72.706900 29.512405 8.809945
LeftLeg -3.281089 -0.000000 0.000000
LeftFoot -9.259887 24.790016 -21.221222
LeftToeBase 31.680151 -0.000000 -0.000000
RightUpLeg -73.551394 -29.459641 -6.868635
RightLeg -5.431563 -0.000000 0.000000
RightFoot -5.646296 -18.465273 27.217339
RightToeBase 30.457862 -0.000000 -0.000000
412
root 19.217045 30.466048 -16.451155 -106.765812 1.154817 -179.582803
Spine 60.037428 3.904587 -1.785847
Head 177.801823 3.815905 191.153652
LeftShoulder 46.278490 -53.731158 -7.503447
LeftArm 41.317641 24.004895 -3.526059
LeftForeArm 45.872291 0.000000 20.118049
LeftHand 9.714107 -0.000000 50.213343
LeftHandThumb1 -26.253704 0.000000 33.147579
RightShoulder 27.662746 5.149751 -21.167910
RightArm 27.586406 31.979813 -6.579334
RightForeArm -58.475404 -0.000000 36.084186
RightHand 5.770846 0.000000 -35.416939
RightHandThumb1 -24.326973 -0.000000 -32.862282
LeftUpLeg -72.572288 29.527851 9.084102
LeftLeg -3.120207 -0.000000 0.000000
LeftFoot -9.583034 24.607216 -21.285020
LeftToeBase 31.706757 -0.000000 -0.000000
RightUpLeg -73.641647 -29.510550 -6.876024
RightLeg -5.177642 -0.000000 0.000000
RightFoot -5.790897 -18.013639 27.267584
RightToeBase 30.680424 -0.000000 -0.000000
413
root 19.221693 30.455720 -16.519024 -106.745298 1.148843 -179.544609
Spine 60.177396 4.005058 -1.681630
Head 177.805508 3.937882 191.154451
LeftShoulder 46.218870 -53.518907 -7.283248
LeftArm 41.580611 24.133425 -2.930706
LeftForeArm 45.546716 0.000000 19.894245
LeftHand 9.699270 -0.000000 50.936981
LeftHandThumb1 -26.253704 0.000000 33.147579
RightShoulder 27.535660 5.108635 -21.168349
RightArm 27.489375 31.786854 -6.920854
RightForeArm -58.195956 -0.000000 35.825662
RightHand 5.826434 -0.000000 -36.341806
RightHandThumb1 -24.326973 -0.000000 -32.862282
LeftUpLeg -72.458552 29.574275 9.287489
LeftLeg -2.930678 -0.000000 0.000000
LeftFoot -9.864531 24.370450 -21.291888
LeftToeBase 31.729885 -0.000000 -0.000000
RightUpLeg -73.569949 -29.524469 -6.977804
RightLeg -5.049277 -0.000000 0.000000
RightFoot -5.859615 -17.675171 27.321971
RightToeBase 30.739696 -0.000000 -0.000000
414
root 19.231897 30.448546 -16.574628 -106.636524 1.104151 -179.489908
Spine 60.172065 4.077819 -1.590215
Head 177.676227 3.858056 191.109872
LeftShoulder 46.108141 -53.387633 -7.014595
LeftArm 41.568301 24.145689 -2.748754
LeftForeArm 45.490012 -0.000000 19.884795
LeftHand 9.800273 -0.000000 51.785703
LeftHandThumb1 -26.253704 0.000000 33.147579
RightShoulder 27.432167 5.066528 -21.097550
RightArm 27.488630 31.621335 -7.166124
RightForeArm -58.054143 0.000000 35.716470
RightHand 5.939639 -0.000000 -36.815707
RightHandThumb1 -24.326973 -0.000000 -32.862282
LeftUpLeg -72.447640 29.612091 9.537300
LeftLeg -2.749203 -0.000000 0.000000
LeftFoot -10.156656 24.308576 -21.413739
LeftToeBase 31.724391 -0.000000 -0.000000
RightUpLeg -73.625381 -29.529057 -6.963448
RightLeg -4.944076 -0.000000 0.000000
RightFoot -5.875816 -17.472329 27.219468
RightToeBase 30.640917 -0.000000 -0.000000
